# xmcd CD database file
#
# Track frame offsets:
#	150
#	13710
#	32618
#	47300
#	61454
#	75015
#	87939
#	102662
#	113560
#	127093
#	137948
#	152745
#	166250
#	181402
#	194718
#	208809
#	222876
#	235232
#
# Disc length: 3344 seconds
#
# Revision: 5
# Processed by: cddbd v1.5PL3 Copyright (c) Steve Scherf et al.
# Submitted via: CDex 1.51
#
DISCID=f50d0e12
DTITLE=Bourvil - La Chanson...
DYEAR=1900
DGENRE=Française
TTITLE0=La tactique du gendarme (1949)
TTITLE1=Les crayons (1946)
TTITLE2=A bicyclette (1947)
TTITLE3=La rumba du pinceau (1947)
TTITLE4=Caroline Caroline (1950)
TTITLE5=C'est l'piston (1947)
TTITLE6=Pour sûr (1947)
TTITLE7=Je suis content, ça marche (1947)
TTITLE8=Timichine la pou-pou (1946)
TTITLE9=La dondon dodue (1949)
TTITLE10=Quand même (1946)
TTITLE11=Le pêcheur au bord de l'eau (1949)
TTITLE12=Mon bouquet (1946)
TTITLE13=Il a suffit d'un hasard (1946)
TTITLE14=Adèle (1949)
TTITLE15=A pied, à cheval, en voiture (1947)
TTITLE16=Avec ses castagnettes (1948)
TTITLE17=Houpetta la belle (1946)
EXTD=
EXTT0=
EXTT1=
EXTT2=
EXTT3=
EXTT4=
EXTT5=
EXTT6=
EXTT7=
EXTT8=
EXTT9=
EXTT10=
EXTT11=
EXTT12=
EXTT13=
EXTT14=
EXTT15=
EXTT16=
EXTT17=
PLAYORDER=
